{"title":"Bon Voyage, Charlie Brown (1980) 1080p AC3 (5.1) HDTV","uid":8791959,"size":1590531404,"categoryP":"video","categoryS":"hd___movies","magnet":"?xt=urn:btih:2e3f6d780bcf40f63686c284c9ad6903d6f10ad9&amp;dn=Bon+Voyage%2C+Charlie+Brown+%281980%29+1080p+AC3+%285.1%29+HDTV&amp;tr=udp%3A%2F%2Ftracker.openbittorrent.com%3A80&amp;tr=udp%3A%2F%2Fopen.demonii.com%3A1337&amp;tr=udp%3A%2F%2Ftracker.coppersurfer.tk%3A6969&amp;tr=udp%3A%2F%2Fexodus.desync.com%3A6969","seeders":1,"leechers":0,"uploader":"nabsltd","files":2,"time":1375972061,"description":"This is my own rip.  The source was TCM, and they have a very large safe area, so although the transmission was 1080p, not every line was used.  But, it's still better than 720p or the VHS (which is the only version available for home video).\n\nThere is a small logo for 20 seconds every 30 minutes.\n\nGeneral\nUnique ID                        : 172508710187039615625048416387484140981 (0x81C7F8146D3027949264C85EA5D0C5B5)\nFormat                           : Matroska\nFormat version                   : Version 4 / Version 2\nFile size                        : 1.46 GiB\nDuration                         : 1h 15mn\nOverall bit rate mode            : Variable\nOverall bit rate                 : 2 745 Kbps\nEncoded date                     : UTC 2013-01-31 17:43:29\nWriting application              : mkvmerge v6.0.0 ('Coming Up For Air') built on Jan 20 2013 09:52:00\nWriting library                  : libebml v1.3.0 + libmatroska v1.4.0\n\nVideo\nID                               : 1\nFormat                           : AVC\nFormat/Info                      : Advanced Video Codec\nFormat profile                   : &lt;a class=&quot;__cf_email__&quot; href=&quot;/cdn-cgi/l/email-protection&quot; data-cfemail=&quot;327a5b555a727e061c03&quot;&gt;[email&amp;#160;protected]&lt;/a&gt;&lt;script cf-hash='f9e31' type=&quot;text/javascript&quot;&gt;\n/* &lt;![CDATA[ */!function(){try{var t=&quot;currentScript&quot;in document?document.currentScript:function(){for(var t=document.getElementsByTagName(&quot;script&quot;),e=t.length;e--;)if(t[e].getAttribute(&quot;cf-hash&quot;))return t[e]}();if(t&amp;&amp;t.previousSibling){var e,r,n,i,c=t.previousSibling,a=c.getAttribute(&quot;data-cfemail&quot;);if(a){for(e=&quot;&quot;,r=parseInt(a.substr(0,2),16),n=2;a.length-n;n+=2)i=parseInt(a.substr(n,2),16)^r,e+=String.fromCharCode(i);e=document.createTextNode(e),c.parentNode.replaceChild(e,c)}}}catch(u){}}();/* ]]&gt; */&lt;/script&gt;\nFormat settings, CABAC           : Yes\nFormat settings, ReFrames        : 7 frames\nCodec ID                         : V_MPEG4/ISO/AVC\nDuration                         : 1h 15mn\nBit rate mode                    : Variable\nBit rate                         : 2 307 Kbps\nMaximum bit rate                 : 10.1 Mbps\nWidth                            : 1 152 pixels\nHeight                           : 860 pixels\nDisplay aspect ratio             : 4:3\nFrame rate                       : 23.976 fps\nColor space                      : YUV\nChroma subsampling               : 4:2:0\nBit depth                        : 8 bits\nScan type                        : Progressive\nBits/(Pixel*Frame)               : 0.097\nStream size                      : 1.22 GiB (84%)\nWriting library                  : x264 core 129 r2230 1cffe9f\nLanguage                         : English\nDefault                          : Yes\nForced                           : No\n\nAudio\nID                               : 2\nFormat                           : AC-3\nFormat/Info                      : Audio Coding 3\nMode extension                   : CM (complete main)\nCodec ID                         : A_AC3\nDuration                         : 1h 15mn\nBit rate mode                    : Constant\nBit rate                         : 384 Kbps\nChannel(s)                       : 6 channels\nChannel positions                : Front: L C R, Side: L R, LFE\nSampling rate                    : 48.0 KHz\nBit depth                        : 16 bits\nCompression mode                 : Lossy\nStream size                      : 209 MiB (14%)\nLanguage                         : English\nDefault                          : Yes\nForced                           : No\n","torrent":{"xt":"urn:btih:2e3f6d780bcf40f63686c284c9ad6903d6f10ad9","amp;dn":"Bon+Voyage%2C+Charlie+Brown+%281980%29+1080p+AC3+%285.1%29+HDTV","amp;tr":["udp%3A%2F%2Ftracker.openbittorrent.com%3A80","udp%3A%2F%2Fopen.demonii.com%3A1337","udp%3A%2F%2Ftracker.coppersurfer.tk%3A6969","udp%3A%2F%2Fexodus.desync.com%3A6969"],"infoHash":"2e3f6d780bcf40f63686c284c9ad6903d6f10ad9","infoHashBuffer":{"type":"Buffer","data":[46,63,109,120,11,207,64,246,54,134,194,132,201,173,105,3,214,241,10,217]},"announce":[],"urlList":[]}}